<svg width="24" height="24" viewBox="0 0 24 24" fill="none" xmlns="http://www.w3.org/2000/svg">
<path d="M5.25151 3.15499C5.79826 3.15499 6.34504 3.26631 6.87356 3.15499C7.30463 3.10714 7.72742 3.00099 8.13098 2.83948C8.50824 2.66485 8.82102 2.37248 9.02399 2.00463C9.2714 1.58928 9.57856 1.21385 9.93524 0.891199C10.3604 0.524972 10.8917 0.310501 11.4478 0.28035C12.004 0.250199 12.5544 0.406087 13.0154 0.724274C13.29 0.929626 13.5407 1.16618 13.7627 1.42934C14.0178 1.72621 14.2181 2.06017 14.4733 2.33848C14.8217 2.72673 15.3063 2.95992 15.8221 2.98784C16.3431 3.04364 16.8684 3.04364 17.3894 2.98784C17.7283 2.92082 18.0768 2.92314 18.4148 2.9944C18.7529 3.06567 19.0737 3.20448 19.3586 3.403C19.6434 3.60151 19.8867 3.85562 20.0743 4.15065C20.2618 4.44567 20.3899 4.77576 20.4511 5.12162C20.4962 5.55333 20.4962 5.98884 20.4511 6.42055C20.3682 6.87647 20.3806 7.34484 20.4874 7.79558C20.5942 8.24633 20.7928 8.66918 21.0707 9.03654C21.3767 9.36632 21.7193 9.65912 22.0914 9.90876C22.5475 10.25 22.8792 10.7359 23.0343 11.2901C23.1893 11.8444 23.159 12.4353 22.9479 12.97C22.7644 13.4884 22.4347 13.9403 22.0002 14.269C21.6629 14.5017 21.3405 14.7556 21.0345 15.0295C20.6379 15.4764 20.4227 16.0601 20.4329 16.6623C20.3967 17.1316 20.3967 17.6031 20.4329 18.0724C20.4904 18.4767 20.4547 18.8891 20.3288 19.2769C20.2028 19.6647 19.9902 20.0173 19.7074 20.307C19.4246 20.5967 19.0795 20.8155 18.6994 20.9462C18.3192 21.0768 17.9143 21.1156 17.5169 21.0596C16.7881 20.8769 16.0233 20.9092 15.3118 21.1525C14.7981 21.3214 14.3551 21.6612 14.0541 22.1174C13.818 22.503 13.5227 22.8474 13.1794 23.1377C12.9025 23.3589 12.5853 23.5221 12.2461 23.6176C11.9069 23.7132 11.5525 23.7393 11.2033 23.6944C10.8542 23.6496 10.5172 23.5346 10.212 23.3563C9.90676 23.1779 9.63929 22.9398 9.42511 22.6555C9.18261 22.2959 8.91448 21.9547 8.62309 21.6349C8.41671 21.427 8.17214 21.2626 7.90317 21.1511C7.6342 21.0397 7.34615 20.9834 7.05577 20.9856C6.57744 20.9291 6.09424 20.9291 5.61592 20.9856C5.21047 21.0503 4.79571 21.0159 4.40588 20.8852C4.01606 20.7546 3.66247 20.5313 3.37405 20.2341C3.08564 19.9368 2.87065 19.5741 2.74712 19.1757C2.62359 18.7772 2.59493 18.3546 2.66347 17.9427C2.74553 17.3767 2.74553 16.8015 2.66347 16.2356C2.61896 15.8877 2.50168 15.5537 2.3193 15.256C2.13693 14.9583 1.89381 14.7039 1.6065 14.5102C1.22212 14.2627 0.877707 13.956 0.58579 13.601C0.24503 13.193 0.0418819 12.6844 0.00580111 12.1501C-0.0302797 11.6158 0.102633 11.0838 0.385341 10.6322C0.588688 10.2985 0.840699 9.99824 1.13263 9.7416C1.42423 9.46329 1.77051 9.2777 2.04388 8.99939C2.22934 8.83391 2.37987 8.63196 2.48638 8.40553C2.59289 8.17909 2.6531 7.93295 2.66347 7.68211C2.71829 7.13308 2.71829 6.57979 2.66347 6.03076C2.5615 5.36337 2.71706 4.68177 3.09752 4.12845C3.47797 3.57513 4.05381 3.19301 4.70467 3.06213H5.21502L5.25151 3.15499Z" fill="#2636D9"/>
</svg>
