<svg width="180" height="41" viewBox="0 0 180 41" fill="none" xmlns="http://www.w3.org/2000/svg">
<path d="M93.7029 38.4641L91.1033 32.9371H78.6736L76.0573 38.4641H70.6909L72.7806 34.0935L73.3323 32.9371L75.6645 28.0478L82.2178 14.2898L84.8843 8.66077L87.534 14.2898L94.0874 28.0478L96.4446 32.9371L96.9795 34.0935L99.0609 38.4641H93.7029ZM80.9807 28.0478H88.7711L84.8843 19.8679L80.9807 28.0478Z" fill="white"/>
<path d="M110.981 21.5514C110.202 21.5503 109.43 21.7062 108.71 22.01C107.991 22.3138 107.337 22.7597 106.788 23.3217C106.238 23.8838 105.804 24.551 105.509 25.2848C105.215 26.0186 105.066 26.8045 105.071 27.5972V38.5066H100.265V16.6622H105.071V18.4648C106.816 17.2829 108.868 16.6555 110.964 16.6622L110.981 21.5514Z" fill="white"/>
<path d="M112.193 27.5971V10.7865H116.999V16.6621H121.831V21.5514H116.999V27.5971C116.997 28.3869 117.148 29.1694 117.444 29.8997C117.739 30.63 118.174 31.2938 118.722 31.853C119.27 32.4123 119.921 32.856 120.638 33.1587C121.356 33.4615 122.124 33.6173 122.901 33.6173V38.5066C120.798 38.5116 118.742 37.8748 116.999 36.6784C115.523 35.6865 114.311 34.3379 113.473 32.7532C112.634 31.1684 112.194 29.397 112.193 27.5971Z" fill="white"/>
<path d="M126.52 8.66075C127.133 8.69753 127.709 8.97111 128.13 9.42553C128.551 9.87995 128.786 10.4809 128.786 11.1054C128.786 11.7299 128.551 12.3308 128.13 12.7852C127.709 13.2397 127.133 13.5132 126.52 13.55C126.193 13.5697 125.865 13.521 125.556 13.4071C125.248 13.2931 124.966 13.1162 124.727 12.8873C124.488 12.6583 124.298 12.3822 124.168 12.0758C124.038 11.7694 123.971 11.4391 123.971 11.1054C123.971 10.7716 124.038 10.4414 124.168 10.135C124.298 9.82859 124.488 9.55243 124.727 9.32349C124.966 9.09456 125.248 8.91768 125.556 8.80371C125.865 8.68975 126.193 8.64109 126.52 8.66075Z" fill="#B601D1"/>
<path d="M128.919 16.6622H124.113V38.4642H128.919V16.6622Z" fill="white"/>
<path d="M130.148 16.6876H151.58L148.111 21.5769L143.823 27.5971L139.552 33.6003H151.588V38.4896H130.148L133.642 33.6003L137.896 27.5971L142.168 21.5769H130.148V16.6876Z" fill="white"/>
<path d="M155.224 8.66078C155.701 8.6591 156.167 8.80129 156.564 9.06935C156.961 9.33742 157.271 9.7193 157.454 10.1666C157.638 10.614 157.687 11.1066 157.595 11.5822C157.503 12.0578 157.274 12.4949 156.938 12.8383C156.602 13.1816 156.173 13.4157 155.705 13.5109C155.238 13.6061 154.754 13.5581 154.313 13.373C153.873 13.1879 153.496 12.874 153.232 12.4711C152.967 12.0682 152.825 11.5944 152.825 11.1097C152.824 10.7885 152.885 10.4702 153.006 10.1732C153.126 9.8761 153.302 9.60608 153.525 9.37857C153.748 9.15106 154.013 8.97053 154.304 8.84736C154.596 8.72419 154.909 8.66078 155.224 8.66078Z" fill="#B601D1"/>
<path d="M157.606 16.6622H152.8V38.4642H157.606V16.6622Z" fill="white"/>
<path d="M158.568 27.5972C158.571 25.6291 159.098 23.6987 160.092 22.0104C161.086 20.3221 162.511 18.9388 164.215 18.0071C165.919 17.0754 167.84 16.63 169.772 16.7181C171.705 16.8061 173.578 17.4244 175.194 18.5074V16.7047H180V38.5067H175.194V36.6785C173.445 37.8703 171.388 38.5066 169.284 38.5066C167.18 38.5066 165.123 37.8703 163.374 36.6785C161.896 35.6882 160.683 34.3399 159.845 32.7548C159.006 31.1697 158.567 29.3974 158.568 27.5972ZM175.194 27.5972C175.192 26.4082 174.844 25.2464 174.193 24.2587C173.542 23.271 172.618 22.5018 171.538 22.0484C170.457 21.5949 169.269 21.4776 168.123 21.7112C166.977 21.9448 165.925 22.5189 165.099 23.3608C164.274 24.2027 163.713 25.2747 163.486 26.4412C163.26 27.6077 163.379 28.8163 163.827 29.9141C164.276 31.012 165.035 31.9498 166.008 32.6089C166.98 33.2681 168.124 33.6191 169.292 33.6174C170.07 33.6185 170.84 33.4635 171.558 33.1614C172.277 32.8593 172.93 32.4158 173.48 31.8566C174.029 31.2973 174.465 30.6332 174.762 29.9023C175.059 29.1714 175.212 28.3881 175.21 27.5972H175.194Z" fill="white"/>
<path d="M31.7136 13.0739L26.6649 5.38711L21.6161 13.0739H18.3144L26.6649 0.353271L35.0238 13.0739H31.7136Z" fill="url(#paint0_linear_113_143)"/>
<path d="M16.6761 40.4794L26.6649 25.2673L36.6956 40.4794H16.6761ZM31.3877 37.4183L26.6649 30.2246L21.9422 37.4183H31.3877Z" fill="url(#paint1_linear_113_143)"/>
<path d="M19.518 27.7588L26.6648 16.8833L33.8117 27.7588V32.58L26.6648 21.7046L19.518 32.58V27.7588Z" fill="url(#paint2_linear_113_143)"/>
<path d="M38.8771 40.4794L35.0403 34.7824V26.0497L31.655 21.2029L26.6648 13.6011L21.6745 21.1944L18.2892 26.0497V34.7824L14.4525 40.4794H0L10.3232 24.9613L10.3566 29.9101L5.33295 37.6479H13.0315L15.8902 33.3964V24.8252L18.5316 20.9563L20.3956 18.1163H18.2558L12.0451 27.2826V22.2828L16.6258 15.2762V15.1402H16.7177L16.7679 15.0637L16.8849 15.1402H22.3516L26.6648 8.57581L30.9779 15.1402H36.4446L36.5617 15.0722L36.6118 15.1402H36.7038V15.2762L41.2928 22.2828L41.2844 27.2826L35.0738 18.1163H32.9339L34.8063 20.9563L37.4393 24.8252V33.3964L40.3064 37.6479H47.9966L42.9729 29.9101L43.0147 24.9613L53.3295 40.4794H38.8771Z" fill="url(#paint3_linear_113_143)"/>
<path d="M40.9666 35.5221L39.1026 32.3249V27.4781L44.494 35.5221H40.9666Z" fill="url(#paint4_linear_113_143)"/>
<path d="M8.84374 35.5221L14.2268 27.4781V32.3249L12.3712 35.5221H8.84374Z" fill="url(#paint5_linear_113_143)"/>
<defs>
<linearGradient id="paint0_linear_113_143" x1="6.84603" y1="0.081173" x2="60.039" y2="21.8662" gradientUnits="userSpaceOnUse">
<stop stop-color="#2736D3"/>
<stop offset="1" stop-color="#B600D1"/>
</linearGradient>
<linearGradient id="paint1_linear_113_143" x1="-2.40718" y1="22.6739" x2="50.7858" y2="44.4589" gradientUnits="userSpaceOnUse">
<stop stop-color="#2736D3"/>
<stop offset="1" stop-color="#B600D1"/>
</linearGradient>
<linearGradient id="paint2_linear_113_143" x1="0.652069" y1="15.2167" x2="53.8367" y2="37.0017" gradientUnits="userSpaceOnUse">
<stop stop-color="#2736D3"/>
<stop offset="1" stop-color="#B600D1"/>
</linearGradient>
<linearGradient id="paint3_linear_113_143" x1="-0.727221" y1="18.5669" x2="52.4657" y2="40.352" gradientUnits="userSpaceOnUse">
<stop stop-color="#2736D3"/>
<stop offset="1" stop-color="#B600D1"/>
</linearGradient>
<linearGradient id="paint4_linear_113_143" x1="0.793904" y1="14.868" x2="53.9785" y2="36.6531" gradientUnits="userSpaceOnUse">
<stop stop-color="#2736D3"/>
<stop offset="1" stop-color="#B600D1"/>
</linearGradient>
<linearGradient id="paint5_linear_113_143" x1="-3.42707" y1="25.1568" x2="49.7659" y2="46.9418" gradientUnits="userSpaceOnUse">
<stop stop-color="#2736D3"/>
<stop offset="1" stop-color="#B600D1"/>
</linearGradient>
</defs>
</svg>
