<svg width="26" height="33" viewBox="0 0 26 33" fill="none" xmlns="http://www.w3.org/2000/svg">
<path d="M12.8805 32.1734C9.94115 32.1985 7.02113 31.6842 4.25819 30.6546C3.0218 30.214 1.90219 29.4843 0.987841 28.5232C0.662605 28.1758 0.407903 27.7656 0.238542 27.3162C0.0691817 26.8669 -0.0114585 26.3875 0.00131066 25.9059C0.0492699 22.4663 1.40728 19.1826 3.78465 16.7578C3.88801 16.6319 4.01519 16.529 4.15849 16.4551C4.30178 16.3812 4.4582 16.338 4.61826 16.3281C4.77832 16.3182 4.93869 16.3417 5.08962 16.3973C5.24055 16.4529 5.3789 16.5393 5.49628 16.6515C5.61795 16.7644 5.7152 16.9023 5.78176 17.0562C5.84831 17.2101 5.8827 17.3766 5.8827 17.545C5.8827 17.7134 5.84831 17.8799 5.78176 18.0338C5.7152 18.1877 5.61795 18.3256 5.49628 18.4386C3.90106 20.0859 2.86358 22.2155 2.53669 24.5137C2.4775 24.9237 2.47257 25.3439 2.42324 25.7591C2.39325 26.0248 2.43219 26.294 2.53614 26.5394C2.64008 26.7848 2.80533 26.9976 3.01516 27.1564C3.73487 27.77 4.56184 28.2373 5.45189 28.5334C7.64298 29.3076 9.94172 29.7128 12.2589 29.7332C15.1037 29.883 17.9502 29.4723 20.6445 28.5232C21.3756 28.2286 22.079 27.866 22.7458 27.4399C23.0855 27.2415 23.3579 26.941 23.5263 26.579C23.6947 26.217 23.7511 25.8107 23.6879 25.4148C23.4907 22.7767 22.3795 20.2983 20.5557 18.4284C20.4056 18.2965 20.288 18.1301 20.2126 17.9427C20.1372 17.7553 20.106 17.5522 20.1216 17.3501C20.1388 17.1217 20.2215 16.9036 20.3593 16.7234C20.4971 16.5432 20.6839 16.4089 20.896 16.3376C21.11 16.2505 21.3449 16.2329 21.569 16.2873C21.7931 16.3416 21.9955 16.4652 22.1489 16.6413C23.5483 18.0539 24.6131 19.7772 25.2614 21.6786C25.7001 22.9927 25.9478 24.3659 25.9964 25.754C26.0266 26.3363 25.9262 26.918 25.703 27.4542C25.4799 27.9905 25.1398 28.4671 24.709 28.8473C23.6233 29.8131 22.3457 30.5249 20.9651 30.9331C18.3502 31.779 15.622 32.1976 12.8805 32.1734Z" fill="white"/>
<path d="M13.0285 0.638434C14.1231 0.63965 15.2066 0.8641 16.216 1.29874C17.2254 1.73339 18.1406 2.36956 18.9084 3.17031C19.6762 3.97105 20.2813 4.92041 20.6886 5.96322C21.0958 7.00603 21.2971 8.12151 21.2808 9.24485C21.2459 11.4733 20.3602 13.5986 18.8141 15.1637C17.268 16.7287 15.1852 17.6083 13.0137 17.6133C11.9223 17.612 10.842 17.3893 9.83478 16.9581C8.82756 16.5269 7.91332 15.8955 7.14461 15.1005C6.37589 14.3054 5.76786 13.3622 5.35548 12.3251C4.94309 11.2881 4.73448 10.1776 4.74163 9.05754C4.76116 6.81595 5.64315 4.67313 7.19541 3.0961C8.74767 1.51907 10.8443 0.635673 13.0285 0.638434ZM13.0285 15.1833C14.5983 15.1833 16.1039 14.5432 17.214 13.4039C18.324 12.2646 18.9477 10.7194 18.9477 9.10817C18.9411 7.50134 18.3146 5.96259 17.2053 4.82875C16.0959 3.69492 14.5941 3.05834 13.0285 3.05836C11.4723 3.06897 9.98275 3.70817 8.88232 4.83759C7.7819 5.96701 7.15911 7.49576 7.14877 9.09297C7.14477 10.6955 7.75786 12.2347 8.85451 13.3754C9.95116 14.5161 11.4425 15.1659 13.0038 15.1833H13.0285Z" fill="white"/>
</svg>
