<svg width="42" height="42" viewBox="0 0 42 42" fill="none" xmlns="http://www.w3.org/2000/svg">
<path d="M36.75 36.75L26.25 26.25M5.25 17.5C5.25 19.1087 5.56686 20.7016 6.18248 22.1879C6.7981 23.6741 7.70042 25.0245 8.83794 26.1621C9.97546 27.2996 11.3259 28.2019 12.8121 28.8175C14.2984 29.4331 15.8913 29.75 17.5 29.75C19.1087 29.75 20.7016 29.4331 22.1879 28.8175C23.6741 28.2019 25.0245 27.2996 26.1621 26.1621C27.2996 25.0245 28.2019 23.6741 28.8175 22.1879C29.4331 20.7016 29.75 19.1087 29.75 17.5C29.75 15.8913 29.4331 14.2984 28.8175 12.8121C28.2019 11.3259 27.2996 9.97546 26.1621 8.83794C25.0245 7.70042 23.6741 6.7981 22.1879 6.18248C20.7016 5.56686 19.1087 5.25 17.5 5.25C15.8913 5.25 14.2984 5.56686 12.8121 6.18248C11.3259 6.7981 9.97546 7.70042 8.83794 8.83794C7.70042 9.97546 6.7981 11.3259 6.18248 12.8121C5.56686 14.2984 5.25 15.8913 5.25 17.5Z" stroke="#FDF5F5" stroke-width="2" stroke-linecap="round" stroke-linejoin="round"/>
</svg>
