<svg width="10" height="7" viewBox="0 0 10 7" fill="none" xmlns="http://www.w3.org/2000/svg">
<path d="M3.59131 4.50808L3.39086 4.32258L1.86002 2.76409C1.77506 2.67759 1.67425 2.60887 1.56324 2.56206C1.45223 2.51525 1.33323 2.49117 1.21307 2.49117C1.09291 2.49117 0.973906 2.51525 0.862895 2.56206C0.751885 2.60887 0.651079 2.67759 0.566115 2.76409C0.481152 2.85059 0.413651 2.95321 0.367669 3.06623C0.321687 3.17925 0.298035 3.3004 0.298035 3.42273C0.298035 3.54506 0.321687 3.66621 0.367669 3.77923C0.413651 3.89224 0.481152 3.99487 0.566115 4.08137L2.78952 6.3635C2.90167 6.48992 3.04783 6.5802 3.20977 6.62306C3.37171 6.66593 3.54234 6.65952 3.70077 6.60472C4.03008 6.53131 4.32912 6.35635 4.55729 6.10372L5.19512 5.43579L8.84013 1.72494C8.96746 1.62713 9.0669 1.49634 9.12779 1.34625C9.18869 1.19615 9.20894 1.0323 9.18652 0.871521C9.17606 0.699621 9.11464 0.534831 9.01055 0.399059C8.90646 0.263287 8.76445 0.162822 8.6032 0.110734C8.42964 0.0480697 8.24172 0.0393464 8.06325 0.0855938C7.88479 0.131841 7.72396 0.231002 7.60095 0.370521L3.79198 4.24829C3.73718 4.34383 3.66952 4.43126 3.59131 4.50808Z" fill="white"/>
</svg>
