<svg width="24" height="25" viewBox="0 0 24 25" fill="none" xmlns="http://www.w3.org/2000/svg">
<path d="M23.599 15.3781C23.0471 17.6228 21.8517 19.6511 20.1641 21.2063C18.4765 22.7616 16.3725 23.774 14.118 24.1156C11.8636 24.4572 9.55992 24.1126 7.4984 23.1254C5.43688 22.1382 3.71004 20.5527 2.53625 18.5694C1.36245 16.5862 0.794409 14.2942 0.903943 11.9832C1.01348 9.67228 1.79567 7.4462 3.15162 5.58645C4.50757 3.7267 6.37637 2.3168 8.52175 1.53502C10.6671 0.753241 12.9927 0.634697 15.2044 1.19437C16.6735 1.56568 18.0561 2.22719 19.2731 3.1411C20.4902 4.055 21.5179 5.20338 22.2975 6.5206C23.0771 7.83783 23.5933 9.29807 23.8166 10.8179C24.0399 12.3377 23.966 13.8873 23.599 15.3781Z" fill="#F7931A"/>
<path d="M17.4992 10.8811C17.7278 9.32383 16.5599 8.48483 14.963 7.92867L15.4828 5.81843L14.2303 5.50063L13.7262 7.55366L12.6992 7.32166L13.2064 5.25592L11.954 4.93811L11.4374 7.04834C11.1618 6.98478 10.8925 6.92122 10.6295 6.85448L8.88548 6.41273L8.55045 7.78247C8.55045 7.78247 9.48979 8.00176 9.46787 8.01447C9.6431 8.03524 9.80318 8.12531 9.91339 8.26513C10.0236 8.40495 10.075 8.58324 10.0565 8.76132L9.46474 11.1735L8.63812 14.539C8.62166 14.5991 8.59342 14.6553 8.55509 14.704C8.51676 14.7528 8.46914 14.7933 8.41506 14.8229C8.36099 14.8526 8.30157 14.8709 8.24036 14.8767C8.17916 14.8825 8.11743 14.8758 8.05886 14.8568C8.05886 14.8759 7.13831 14.6248 7.13831 14.6248L6.51208 16.0963L8.15906 16.5126C8.47217 16.5889 8.76337 16.6715 9.05769 16.7478L8.53479 18.8803L9.78725 19.1981L10.307 17.0878C10.6514 17.1832 10.9865 17.269 11.3121 17.3516L10.7955 19.4523L12.0479 19.7701L12.574 17.6408C14.7282 18.054 16.3532 17.8887 17.0327 15.9088C17.5838 14.3197 17.0076 13.3949 15.871 12.7943C16.6976 12.6004 17.3207 12.0474 17.4867 10.9097L17.4992 10.8811ZM14.6092 14.9935C14.2178 16.5825 11.5751 15.7276 10.7172 15.5083L11.4092 12.683C12.2671 12.8992 15.0162 13.3187 14.6092 14.9935ZM15.0006 10.862C14.6436 12.3144 12.4424 11.5771 11.7285 11.3959L12.3548 8.83123C13.0718 9.00603 15.3732 9.3429 15.0006 10.8557V10.862Z" fill="white"/>
</svg>
